<?xml version="1.0" encoding="utf-8"?>
<!-- Generator: Adobe Illustrator 24.1.2, SVG Export Plug-In . SVG Version: 6.00 Build 0)  -->
<svg version="1.1" id="Layer_1" xmlns="http://www.w3.org/2000/svg" xmlns:xlink="http://www.w3.org/1999/xlink" x="0px" y="0px"
	 viewBox="0 0 64 64" style="enable-background:new 0 0 64 64;" xml:space="preserve">
<style type="text/css">
	.st0{fill:#E71D36;}
	.st1{fill-rule:evenodd;clip-rule:evenodd;fill:#FFFFFF;}
</style>
<g transform="translate(0.000000,950.000000) scale(0.100000,-0.100000)">
	<path class="st0" d="M95.9,9499.7c-12.4-1.4-26.4-5.8-38.6-12.2c-28.8-15.2-50.3-44.8-56-77.4c-1.2-6.9-1.3-16.2-1.3-231.6v-224.4
		l1.6-7c9.9-44.6,41.4-76.1,86-86l7-1.6H320h225.4l7,1.6c44.6,9.9,76.1,41.4,86,86l1.6,7v224.4c0,215.4-0.1,224.7-1.3,231.6
		c-1.7,10-5.1,20.1-10.3,30.5c-16.2,32.7-48.9,55.3-85.4,59.3C534.5,9500.7,104,9500.7,95.9,9499.7z"/>
</g>
<path class="st1" d="M11,20.1v24c0,1.3,1,2.4,2.3,2.4h37.5c1.3,0,2.3-1,2.3-2.4v-24c0-1.4-0.9-2.5-2.3-2.5H13.3
	C11.8,17.6,11,18.7,11,20.1 M14.4,22.2c0-0.6,0.3-0.9,0.9-0.9c0.3,0,13.9,8.7,14.8,9.1l2.1,1.3c0.7-0.4,1.3-0.9,2-1.3
	c1.4-0.9,14.2-9.2,14.5-9.2c0.5,0,0.9,0.4,0.9,0.9c0,0.6-1.1,1.2-1.9,1.7c-4.8,3-9.6,6.1-14.4,9.2c-0.3,0.2-0.8,0.6-1.2,0.5
	c-0.4-0.1-14.3-8.9-16.8-10.4C14.9,22.9,14.4,22.7,14.4,22.2"/>
</svg>
