<?xml version="1.0" encoding="utf-8"?>
<!-- Generator: Adobe Illustrator 24.1.2, SVG Export Plug-In . SVG Version: 6.00 Build 0)  -->
<svg version="1.1" id="Layer_1" xmlns="http://www.w3.org/2000/svg" xmlns:xlink="http://www.w3.org/1999/xlink" x="0px" y="0px"
	 viewBox="0 0 64 64" style="enable-background:new 0 0 64 64;" xml:space="preserve">
<style type="text/css">
	.st0{fill:#E71D36;}
	.st1{fill-rule:evenodd;clip-rule:evenodd;fill:#FFFFFF;}
</style>
<g transform="translate(0.000000,950.000000) scale(0.100000,-0.100000)">
	<path class="st0" d="M95.9,9499.7c-12.4-1.4-26.4-5.8-38.6-12.2c-28.8-15.2-50.3-44.8-56-77.4c-1.2-6.9-1.3-16.2-1.3-231.6v-224.4
		l1.6-7c9.9-44.6,41.4-76.1,86-86l7-1.6H320h225.4l7,1.6c44.6,9.9,76.1,41.4,86,86l1.6,7v224.4c0,215.4-0.1,224.7-1.3,231.6
		c-1.7,10-5.1,20.1-10.3,30.5c-16.2,32.7-48.9,55.3-85.4,59.3C534.5,9500.7,104,9500.7,95.9,9499.7z"/>
</g>
<path class="st1" d="M32,11.4c-11.6,0-21,9.4-21,21.1c0,9.3,6,17.2,14.4,20c1,0.2,1.4-0.4,1.4-1.1c0-0.5,0-1.8,0-3.6
	c-5.9,1.3-7.1-2.8-7.1-2.8c-1-2.5-2.4-3.1-2.4-3.1c-1.8-1.3,0.2-1.3,0.2-1.3c2.1,0.2,3.2,2.2,3.2,2.2c1.8,3.2,4.9,2.3,6.1,1.8
	c0.2-1.4,0.7-2.3,1.3-2.8c-4.6-0.5-9.5-2.4-9.5-10.4c0-2.3,0.8-4.2,2.2-5.7c-0.2-0.5-1-2.7,0.2-5.6c0,0,1.8-0.5,5.8,2.2
	c1.7-0.4,3.5-0.7,5.2-0.7c1.8,0,3.6,0.3,5.3,0.7c4-2.7,5.8-2.2,5.8-2.2c1.1,2.9,0.4,5.1,0.2,5.6c1.3,1.5,2.2,3.3,2.2,5.7
	c0,8.1-4.9,9.9-9.6,10.4c0.8,0.6,1.4,1.9,1.4,3.9c0,2.8,0,5.1,0,5.8c0,0.5,0.4,1.2,1.4,1.1C47,49.8,53,41.8,53,32.5
	C53,20.9,43.6,11.4,32,11.4"/>
</svg>
