<?xml version="1.0" encoding="utf-8"?>
<!-- Generator: Adobe Illustrator 24.1.2, SVG Export Plug-In . SVG Version: 6.00 Build 0)  -->
<svg version="1.1" id="Layer_1" xmlns="http://www.w3.org/2000/svg" xmlns:xlink="http://www.w3.org/1999/xlink" x="0px" y="0px"
	 viewBox="0 0 64 64" style="enable-background:new 0 0 64 64;" xml:space="preserve">
<style type="text/css">
	.st0{fill:#E71D36;}
	.st1{fill-rule:evenodd;clip-rule:evenodd;fill:#FFFFFF;}
</style>
<g transform="translate(0.000000,950.000000) scale(0.100000,-0.100000)">
	<path class="st0" d="M95.9,9499.7c-12.4-1.4-26.4-5.8-38.6-12.2c-28.8-15.2-50.3-44.8-56-77.4c-1.2-6.9-1.3-16.2-1.3-231.6v-224.4
		l1.6-7c9.9-44.6,41.4-76.1,86-86l7-1.6H320h225.4l7,1.6c44.6,9.9,76.1,41.4,86,86l1.6,7v224.4c0,215.4-0.1,224.7-1.3,231.6
		c-1.7,10-5.1,20.1-10.3,30.5c-16.2,32.7-48.9,55.3-85.4,59.3C534.5,9500.7,104,9500.7,95.9,9499.7z"/>
</g>
<path class="st1" d="M53,53h-8.7V38.3c0-4-1.6-6.3-4.7-6.3c-3.5,0-5.3,2.4-5.3,6.3V53H26V25h8.3v3.8c0,0,2.5-4.6,8.4-4.6
	c6,0,10.2,3.7,10.2,11.1V53z M16.2,21.3c-2.8,0-5.2-2.3-5.2-5.2s2.3-5.2,5.2-5.2s5.2,2.3,5.2,5.2S19,21.3,16.2,21.3z M11.9,53h8.7
	V25h-8.7V53z"/>
</svg>
