<?xml version="1.0" encoding="utf-8"?>
<!-- Generator: Adobe Illustrator 24.1.2, SVG Export Plug-In . SVG Version: 6.00 Build 0)  -->
<svg version="1.1" id="Layer_1" xmlns="http://www.w3.org/2000/svg" xmlns:xlink="http://www.w3.org/1999/xlink" x="0px" y="0px"
	 viewBox="0 0 64 64" style="enable-background:new 0 0 64 64;" xml:space="preserve">
<style type="text/css">
	.st0{fill:#E71D36;}
	.st1{fill:#FFFFFF;}
</style>
<g transform="translate(0.000000,950.000000) scale(0.100000,-0.100000)">
	<path class="st0" d="M95.9,9499.7c-12.4-1.4-26.4-5.8-38.6-12.2c-28.8-15.2-50.3-44.8-56-77.4c-1.2-6.9-1.3-16.2-1.3-231.6v-224.4
		l1.6-7c9.9-44.6,41.4-76.1,86-86l7-1.6H320h225.4l7,1.6c44.6,9.9,76.1,41.4,86,86l1.6,7v224.4c0,215.4-0.1,224.7-1.3,231.6
		c-1.7,10-5.1,20.1-10.3,30.5c-16.2,32.7-48.9,55.3-85.4,59.3C534.5,9500.7,104,9500.7,95.9,9499.7z"/>
</g>
<g id="ltYbfc2Kxv8aoy9MNOsKcH">
	<g>
		<path id="pvKsvXP66" class="st1" d="M18.6,52.8C13.9,51.7,11,48,11,43.3c0-1.5,0.3-3.1,0.8-4.1c1.1-2.2,5.5-6.6,7.8-7.9
			c2.3-1.2,6.1-1.3,8.3-0.2l1.5,0.9l1.3-1.3l1.3-1.3l-0.8-1.6c-1.1-2.2-1-6.1,0.2-8.4c1.1-2.2,5.7-6.6,7.9-7.8
			c1-0.4,2.6-0.8,4.1-0.8c5.5,0,9.6,4.1,9.6,9.6c0,3.2-1.1,5.4-4.5,8.7c-3.8,3.6-6.6,4.9-9.7,4.3L37.3,33l1.5-1.5
			c0.8-0.9,2.1-1.7,3-1.8c1.8-0.4,6.1-4.1,7.2-6.4c2.6-5.5-2.4-11-8-8.9c-1.5,0.6-4.3,3.1-5.9,5.3c-0.9,1.3-1.3,2.3-1.3,3.8
			c0,3.6,0.3,3.6,3.1,0.9c2.8-2.6,3.6-2.8,4.5-1.1c0.4,0.8-0.5,1.9-8.3,9.7s-8.9,8.8-9.7,8.3c-1.8-1-1.6-1.8,1.1-4.5
			c2.8-2.9,2.7-3.2-0.9-3.2c-2.2,0-4.5,1.4-7,4.3c-1.8,2.1-2.4,3.4-2.4,5.6c0,4.2,4.6,7.1,8.8,5.6c2.6-1,7.1-6,7.1-8
			c0-0.5,0.7-1.7,1.6-2.4l1.6-1.5l0.3,1.4c0.6,3.1-0.6,5.9-4.3,9.7C25.6,52.2,22.1,53.7,18.6,52.8z"/>
	</g>
</g>
</svg>
